<svg xmlns="http://www.w3.org/2000/svg" viewBox="0 0 320 200">
<defs><radialGradient id="bg" cx=".5" cy=".2" r=".9"><stop offset="0" stop-color="#ffe7c7"/><stop offset="1" stop-color="#ffc2a8"/></radialGradient>
<mask id="m"><rect x="40" y="22" width="240" height="168" fill="#fff"/><circle cx="58" cy="38" r="12.5" fill="#000"/><circle cx="92" cy="38" r="12.5" fill="#000"/><circle cx="126" cy="38" r="12.5" fill="#000"/><circle cx="160" cy="38" r="12.5" fill="#000"/><circle cx="194" cy="38" r="12.5" fill="#000"/><circle cx="228" cy="38" r="12.5" fill="#000"/><circle cx="262" cy="38" r="12.5" fill="#000"/><circle cx="58" cy="64" r="12.5" fill="#000"/><circle cx="92" cy="64" r="12.5" fill="#000"/><circle cx="126" cy="64" r="12.5" fill="#000"/><circle cx="160" cy="64" r="12.5" fill="#000"/><circle cx="194" cy="64" r="12.5" fill="#000"/><circle cx="228" cy="64" r="12.5" fill="#000"/><circle cx="262" cy="64" r="12.5" fill="#000"/><circle cx="58" cy="90" r="12.5" fill="#000"/><circle cx="92" cy="90" r="12.5" fill="#000"/><circle cx="126" cy="90" r="12.5" fill="#000"/><circle cx="160" cy="90" r="12.5" fill="#000"/><circle cx="194" cy="90" r="12.5" fill="#000"/><circle cx="228" cy="90" r="12.5" fill="#000"/><circle cx="262" cy="90" r="12.5" fill="#000"/><circle cx="58" cy="116" r="12.5" fill="#000"/><circle cx="92" cy="116" r="12.5" fill="#000"/><circle cx="126" cy="116" r="12.5" fill="#000"/><circle cx="160" cy="116" r="12.5" fill="#000"/><circle cx="194" cy="116" r="12.5" fill="#000"/><circle cx="228" cy="116" r="12.5" fill="#000"/><circle cx="262" cy="116" r="12.5" fill="#000"/><circle cx="58" cy="142" r="12.5" fill="#000"/><circle cx="92" cy="142" r="12.5" fill="#000"/><circle cx="126" cy="142" r="12.5" fill="#000"/><circle cx="160" cy="142" r="12.5" fill="#000"/><circle cx="194" cy="142" r="12.5" fill="#000"/><circle cx="228" cy="142" r="12.5" fill="#000"/><circle cx="262" cy="142" r="12.5" fill="#000"/><circle cx="58" cy="168" r="12.5" fill="#000"/><circle cx="92" cy="168" r="12.5" fill="#000"/><circle cx="126" cy="168" r="12.5" fill="#000"/><circle cx="160" cy="168" r="12.5" fill="#000"/><circle cx="194" cy="168" r="12.5" fill="#000"/><circle cx="228" cy="168" r="12.5" fill="#000"/><circle cx="262" cy="168" r="12.5" fill="#000"/></mask></defs>
<rect width="320" height="200" fill="url(#bg)"/>
<circle cx="194" cy="90" r="12" fill="#ffc928"/><ellipse cx="190" cy="85" rx="4" ry="2.5" fill="rgba(255,255,255,.5)"/><circle cx="126" cy="116" r="12" fill="#ffc928"/><ellipse cx="122" cy="111" rx="4" ry="2.5" fill="rgba(255,255,255,.5)"/><circle cx="194" cy="116" r="12" fill="#ef3b3b"/><ellipse cx="190" cy="111" rx="4" ry="2.5" fill="rgba(255,255,255,.5)"/><circle cx="228" cy="116" r="12" fill="#ef3b3b"/><ellipse cx="224" cy="111" rx="4" ry="2.5" fill="rgba(255,255,255,.5)"/><circle cx="126" cy="142" r="12" fill="#ef3b3b"/><ellipse cx="122" cy="137" rx="4" ry="2.5" fill="rgba(255,255,255,.5)"/><circle cx="160" cy="142" r="12" fill="#ffc928"/><ellipse cx="156" cy="137" rx="4" ry="2.5" fill="rgba(255,255,255,.5)"/><circle cx="194" cy="142" r="12" fill="#ef3b3b"/><ellipse cx="190" cy="137" rx="4" ry="2.5" fill="rgba(255,255,255,.5)"/><circle cx="228" cy="142" r="12" fill="#ffc928"/><ellipse cx="224" cy="137" rx="4" ry="2.5" fill="rgba(255,255,255,.5)"/><circle cx="92" cy="168" r="12" fill="#ffc928"/><ellipse cx="88" cy="163" rx="4" ry="2.5" fill="rgba(255,255,255,.5)"/><circle cx="126" cy="168" r="12" fill="#ef3b3b"/><ellipse cx="122" cy="163" rx="4" ry="2.5" fill="rgba(255,255,255,.5)"/><circle cx="160" cy="168" r="12" fill="#ef3b3b"/><ellipse cx="156" cy="163" rx="4" ry="2.5" fill="rgba(255,255,255,.5)"/><circle cx="194" cy="168" r="12" fill="#ffc928"/><ellipse cx="190" cy="163" rx="4" ry="2.5" fill="rgba(255,255,255,.5)"/><circle cx="228" cy="168" r="12" fill="#ef3b3b"/><ellipse cx="224" cy="163" rx="4" ry="2.5" fill="rgba(255,255,255,.5)"/>
<circle cx="126" cy="8" r="12" fill="#ffc928"/>
<rect x="40" y="22" width="240" height="168" rx="14" fill="#2457e6" mask="url(#m)"/>
</svg>