<svg xmlns="http://www.w3.org/2000/svg" viewBox="0 0 320 200">
<defs><filter id="g" x="-50%" y="-50%" width="200%" height="200%"><feGaussianBlur stdDeviation="3" result="b"/><feMerge><feMergeNode in="b"/><feMergeNode in="SourceGraphic"/></feMerge></filter></defs>
<rect width="320" height="200" fill="#07070a"/>
<polygon points="81.6,100.0 64.6,129.4 30.6,129.4 13.6,100.0 30.6,70.6 64.6,70.6" fill="none" stroke="#00f0ff" stroke-opacity=".12" stroke-width="1.5" stroke-linejoin="round"/>
<polygon points="306.4,100.0 289.4,129.4 255.4,129.4 238.4,100.0 255.4,70.6 289.4,70.6" fill="none" stroke="#00f0ff" stroke-opacity=".12" stroke-width="1.5" stroke-linejoin="round"/>
<polygon points="137.8,2.7 120.8,32.1 86.8,32.1 69.8,2.7 86.8,-26.8 120.8,-26.8" fill="none" stroke="#00f0ff" stroke-opacity=".12" stroke-width="1.5" stroke-linejoin="round"/>
<polygon points="250.2,197.3 233.2,226.8 199.2,226.8 182.2,197.3 199.2,167.9 233.2,167.9" fill="none" stroke="#00f0ff" stroke-opacity=".12" stroke-width="1.5" stroke-linejoin="round"/>
<polygon points="194.0,100.0 177.0,129.4 143.0,129.4 126.0,100.0 143.0,70.6 177.0,70.6" fill="#ffb800" stroke="#ffb800" stroke-width="2.5" stroke-linejoin="round" filter="url(#g)"/>
<text x="160.0" y="101.0" font-family="JetBrains Mono, monospace" font-weight="700" font-size="26" text-anchor="middle" dominant-baseline="central" fill="#07070a">R</text>
<polygon points="194.0,35.1 177.0,64.6 143.0,64.6 126.0,35.1 143.0,5.7 177.0,5.7" fill="#0d0d13" stroke="#00f0ff" stroke-width="2.5" stroke-linejoin="round" filter="url(#g)"/>
<text x="160.0" y="36.1" font-family="JetBrains Mono, monospace" font-weight="700" font-size="26" text-anchor="middle" dominant-baseline="central" fill="#eaeaf0">O</text>
<polygon points="250.2,67.6 233.2,97.0 199.2,97.0 182.2,67.6 199.2,38.1 233.2,38.1" fill="#0d0d13" stroke="#00f0ff" stroke-width="2.5" stroke-linejoin="round" filter="url(#g)"/>
<text x="216.2" y="68.6" font-family="JetBrains Mono, monospace" font-weight="700" font-size="26" text-anchor="middle" dominant-baseline="central" fill="#eaeaf0">L</text>
<polygon points="250.2,132.4 233.2,161.9 199.2,161.9 182.2,132.4 199.2,103.0 233.2,103.0" fill="#0d0d13" stroke="#00f0ff" stroke-width="2.5" stroke-linejoin="round" filter="url(#g)"/>
<text x="216.2" y="133.4" font-family="JetBrains Mono, monospace" font-weight="700" font-size="26" text-anchor="middle" dominant-baseline="central" fill="#eaeaf0">M</text>
<polygon points="194.0,164.9 177.0,194.3 143.0,194.3 126.0,164.9 143.0,135.4 177.0,135.4" fill="#0d0d13" stroke="#00f0ff" stroke-width="2.5" stroke-linejoin="round" filter="url(#g)"/>
<text x="160.0" y="165.9" font-family="JetBrains Mono, monospace" font-weight="700" font-size="26" text-anchor="middle" dominant-baseline="central" fill="#eaeaf0">E</text>
<polygon points="137.8,132.4 120.8,161.9 86.8,161.9 69.8,132.4 86.8,103.0 120.8,103.0" fill="#0d0d13" stroke="#00f0ff" stroke-width="2.5" stroke-linejoin="round" filter="url(#g)"/>
<text x="103.8" y="133.4" font-family="JetBrains Mono, monospace" font-weight="700" font-size="26" text-anchor="middle" dominant-baseline="central" fill="#eaeaf0">N</text>
<polygon points="137.8,67.6 120.8,97.0 86.8,97.0 69.8,67.6 86.8,38.1 120.8,38.1" fill="#0d0d13" stroke="#00f0ff" stroke-width="2.5" stroke-linejoin="round" filter="url(#g)"/>
<text x="103.8" y="68.6" font-family="JetBrains Mono, monospace" font-weight="700" font-size="26" text-anchor="middle" dominant-baseline="central" fill="#eaeaf0">A</text>
</svg>
